<?xml version="1.0" encoding="UTF-8"?>
<svg width="232px" height="34px" viewBox="0 0 232 34" version="1.1" xmlns="http://www.w3.org/2000/svg" xmlns:xlink="http://www.w3.org/1999/xlink">
    <!-- Generator: Sketch 63.1 (92452) - https://sketch.com -->
    <title>Brindesanté</title>
    <desc>Created with Sketch.</desc>
    <g id="Symbols" stroke="none" stroke-width="1" fill="none" fill-rule="evenodd">
        <g id="Titre" transform="translate(-14.000000, -31.000000)" fill="#FFF8F0" fill-rule="nonzero">
            <g id="Brindesanté">
                <path d="M23.8671875,63.9453125 C28.0729167,63.9453125 31.6080729,62.7473958 34.4726562,60.3515625 C37.4023438,57.9036458 38.8671875,54.8177083 38.8671875,51.09375 C38.8671875,49.5442708 38.3268229,48.0273438 37.2460938,46.5429688 C36.3346354,45.2929688 35.3645833,44.4401042 34.3359375,43.984375 C34.9479167,43.1380208 35.3710938,42.4348958 35.6054688,41.875 C35.9309896,41.1067708 36.09375,40.2734375 36.09375,39.375 C36.09375,36.9010417 34.9544271,35.0130208 32.6757812,33.7109375 C30.7617188,32.6171875 28.3984375,32.0703125 25.5859375,32.0703125 C22.6302083,32.0703125 20.078125,32.8255208 17.9296875,34.3359375 C15.8723958,35.78125 14.84375,37.4348958 14.84375,39.296875 C14.84375,40.0390625 15.0455729,40.6445312 15.4492188,41.1132812 C15.8138021,41.5429688 16.2369792,41.7578125 16.71875,41.7578125 C17.2526042,41.7578125 17.7083333,41.6145833 18.0859375,41.328125 C18.6328125,40.9114583 18.8671875,40.4817708 18.7890625,40.0390625 C18.7890625,39.9739583 18.7695312,39.9348958 18.7304688,39.921875 C18.6914062,39.9088542 18.6458333,39.9479167 18.59375,40.0390625 C18.4635417,40.1692708 18.3528646,40.2604167 18.2617188,40.3125 C18.0664062,40.4166667 17.8255208,40.46875 17.5390625,40.46875 C17.2265625,40.46875 16.9791667,40.3483073 16.796875,40.1074219 C16.6145833,39.8665365 16.5234375,39.5182292 16.5234375,39.0625 C16.5234375,38.9583333 16.5364583,38.7890625 16.5625,38.5546875 C16.7317708,37.1223958 17.639974,35.9049479 19.2871094,34.9023438 C20.9342448,33.8997396 22.7864583,33.3984375 24.84375,33.3984375 C27.0833333,33.3984375 28.9973958,33.9192708 30.5859375,34.9609375 C32.3828125,36.1328125 33.28125,37.734375 33.28125,39.765625 C33.28125,40.4296875 33.1998698,41.0579427 33.0371094,41.6503906 C32.874349,42.2428385 32.65625,42.8255208 32.3828125,43.3984375 C31.9270833,43.28125 31.40625,43.2226562 30.8203125,43.2226562 C30.4296875,43.2226562 29.9739583,43.2552083 29.453125,43.3203125 C28.5416667,43.4505208 27.7278646,43.7727865 27.0117188,44.2871094 C26.2955729,44.8014323 25.9375,45.390625 25.9375,46.0546875 C25.9375,46.6015625 26.1458333,47.03125 26.5625,47.34375 C27.0442708,47.7083333 27.7604167,47.890625 28.7109375,47.890625 C29.5703125,47.890625 30.46875,47.5976562 31.40625,47.0117188 C32.2005208,46.5169271 32.8515625,45.9375 33.359375,45.2734375 C34.1536458,45.8072917 34.7884115,46.5592448 35.2636719,47.5292969 C35.7389323,48.499349 35.9765625,49.5572917 35.9765625,50.703125 C35.9765625,54.2578125 34.7070312,57.1614583 32.1679688,59.4140625 C29.7721354,61.5494792 26.8489583,62.6171875 23.3984375,62.6171875 C21.4453125,62.6171875 19.7916667,62.2395833 18.4375,61.484375 C16.8489583,60.5989583 16.0546875,59.3619792 16.0546875,57.7734375 C16.0546875,57.2395833 16.1653646,56.7610677 16.3867188,56.3378906 C16.6080729,55.9147135 16.9270833,55.703125 17.34375,55.703125 C17.6302083,55.703125 17.8710938,55.8072917 18.0664062,56.015625 C18.2096354,56.1588542 18.3203125,56.3378906 18.3984375,56.5527344 C18.4765625,56.7675781 18.5351562,56.875 18.5742188,56.875 C18.6263021,56.875 18.6979167,56.8229167 18.7890625,56.71875 C18.9583333,56.5234375 19.078776,56.3183594 19.1503906,56.1035156 C19.2220052,55.8886719 19.2578125,55.5729167 19.2578125,55.15625 C19.2578125,54.6875 19.0950521,54.296875 18.7695312,53.984375 C18.4440104,53.671875 17.9817708,53.515625 17.3828125,53.515625 C16.5625,53.515625 15.9016927,53.9160156 15.4003906,54.7167969 C14.8990885,55.5175781 14.6484375,56.4322917 14.6484375,57.4609375 C14.6484375,59.5052083 15.6380208,61.1328125 17.6171875,62.34375 C19.3619792,63.4114583 21.4453125,63.9453125 23.8671875,63.9453125 Z M20.0390625,60 C20.1692708,60.0130208 20.390625,60.0065104 20.703125,59.9804688 C21.5364583,59.9153646 22.1614583,59.8828125 22.578125,59.8828125 C22.8255208,59.8828125 23.2714844,59.905599 23.9160156,59.9511719 C24.5605469,59.9967448 24.9479167,60.0130208 25.078125,60 C25.3125,60 25.4296875,59.9283854 25.4296875,59.7851562 C25.4296875,59.7591146 25.4231771,59.7265625 25.4101562,59.6875 C25.3971354,59.6354167 25.3776042,59.5963542 25.3515625,59.5703125 C25.3255208,59.53125 25.0520833,59.3098958 24.53125,58.90625 C24.140625,58.6067708 23.9453125,58.3333333 23.9453125,58.0859375 L23.9453125,58.0859375 L23.9453125,41.1328125 C23.9453125,40.0520833 24.0625,39.0494792 24.296875,38.125 C24.4921875,37.3697917 24.8307292,36.5885417 25.3125,35.78125 C25.3515625,35.7161458 25.3710938,35.6640625 25.3710938,35.625 C25.3710938,35.4817708 25.2994792,35.4427083 25.15625,35.5078125 C24.9869792,35.546875 24.6354167,35.7617188 24.1015625,36.1523438 C23.3723958,36.6731771 22.8515625,37.03125 22.5390625,37.2265625 C22.3567708,37.34375 21.7903646,37.6692708 20.8398438,38.203125 C20.5403646,38.3723958 20.3385417,38.5026042 20.234375,38.59375 C20.1171875,38.6458333 20.0585938,38.7109375 20.0585938,38.7890625 C20.0585938,38.8671875 20.1139323,38.9355469 20.2246094,38.9941406 C20.3352865,39.0527344 20.5403646,39.140625 20.8398438,39.2578125 C21.0872396,39.4270833 21.2109375,39.7135417 21.2109375,40.1171875 L21.2109375,40.1171875 L21.2109375,58.0859375 C21.2109375,58.3333333 21.0091146,58.6132812 20.6054688,58.9257812 C20.0846354,59.3294271 19.8046875,59.5572917 19.765625,59.609375 C19.7265625,59.6484375 19.7070312,59.7005208 19.7070312,59.765625 C19.7070312,59.921875 19.8177083,60 20.0390625,60 Z M28.6328125,46.6796875 C28.4114583,46.6796875 28.1835938,46.640625 27.9492188,46.5625 C27.5455729,46.4322917 27.34375,46.1848958 27.34375,45.8203125 C27.34375,45.4166667 27.6106771,45.0716146 28.1445312,44.7851562 C28.5742188,44.5638021 28.9453125,44.436849 29.2578125,44.4042969 C29.5703125,44.3717448 29.8307292,44.3554688 30.0390625,44.3554688 C30.6770833,44.3554688 31.25,44.4401042 31.7578125,44.609375 C31.4713542,45.1692708 31.0253906,45.6542969 30.4199219,46.0644531 C29.8144531,46.4746094 29.21875,46.6796875 28.6328125,46.6796875 Z M48.90625,60 C49.1927083,60 49.3359375,59.921875 49.3359375,59.765625 C49.3359375,59.6614583 49.2708333,59.5442708 49.140625,59.4140625 C48.8932292,59.21875 48.6458333,59.0169271 48.3984375,58.8085938 C48.1119792,58.5611979 47.96875,58.3203125 47.96875,58.0859375 L47.96875,58.0859375 L47.96875,46.09375 C48.3984375,45.0651042 49.0104167,44.1861979 49.8046875,43.4570312 C50.703125,42.6367188 51.6145833,42.2265625 52.5390625,42.2265625 C53.2682292,42.2265625 53.828125,42.3763021 54.21875,42.6757812 C54.5572917,42.9361979 54.7265625,43.28125 54.7265625,43.7109375 C54.7265625,44.0755208 54.6158854,44.3815104 54.3945312,44.6289062 C54.2382812,44.7981771 54.0592448,44.9153646 53.8574219,44.9804688 C53.655599,45.0455729 53.4375,45.078125 53.203125,45.078125 C53.1119792,45.078125 53.0533854,45.1106771 53.0273438,45.1757812 C53.0013021,45.2408854 53.0078125,45.2994792 53.046875,45.3515625 C53.1510417,45.5859375 53.375651,45.7682292 53.7207031,45.8984375 C54.0657552,46.0286458 54.4791667,46.09375 54.9609375,46.09375 C55.6380208,46.09375 56.1783854,45.859375 56.5820312,45.390625 C56.9856771,44.921875 57.1875,44.3098958 57.1875,43.5546875 C57.1875,42.7604167 56.858724,42.0865885 56.2011719,41.5332031 C55.5436198,40.9798177 54.6354167,40.703125 53.4765625,40.703125 C52.1354167,40.703125 50.9114583,41.1263021 49.8046875,41.9726562 C48.8541667,42.7018229 48.1380208,43.6067708 47.65625,44.6875 C47.5390625,43.8541667 47.0898438,43.0403646 46.3085938,42.2460938 C45.9570312,41.8815104 45.4166667,41.4453125 44.6875,40.9375 C44.6223958,40.8984375 44.5638021,40.8789062 44.5117188,40.8789062 C44.4205729,40.8789062 44.3359375,40.9244792 44.2578125,41.015625 C44.1276042,41.1979167 44.0429688,41.3085938 44.0039062,41.3476562 C43.8736979,41.5039062 43.7239583,41.6666667 43.5546875,41.8359375 L43.5546875,41.8359375 L42.65625,42.6953125 C42.6041667,42.7473958 42.578125,42.8125 42.578125,42.890625 C42.578125,42.9557292 42.6041667,42.9947917 42.65625,43.0078125 C43.7239583,43.4765625 44.4205729,43.90625 44.7460938,44.296875 C45.2278646,44.8828125 45.46875,45.625 45.46875,46.5234375 L45.46875,46.5234375 L45.46875,58.0859375 C45.46875,58.3333333 45.2669271,58.6197917 44.8632812,58.9453125 C44.7460938,59.0364583 44.5703125,59.1796875 44.3359375,59.375 C44.1796875,59.53125 44.1015625,59.6679688 44.1015625,59.7851562 C44.1015625,59.9283854 44.2447917,60 44.53125,60 C44.9088542,59.9739583 45.2441406,59.9479167 45.5371094,59.921875 C45.8300781,59.8958333 46.2239583,59.8828125 46.71875,59.8828125 C46.9791667,59.8828125 47.5130208,59.9153646 48.3203125,59.9804688 C48.4765625,59.9934896 48.671875,60 48.90625,60 Z M62.96875,37.421875 C63.4505208,37.421875 63.8639323,37.2623698 64.2089844,36.9433594 C64.5540365,36.624349 64.7265625,36.2369792 64.7265625,35.78125 C64.7265625,35.3125 64.5638021,34.9023438 64.2382812,34.5507812 C63.9127604,34.1992188 63.515625,34.0234375 63.046875,34.0234375 C62.578125,34.0234375 62.1679688,34.1861979 61.8164062,34.5117188 C61.4648438,34.8372396 61.2890625,35.234375 61.2890625,35.703125 C61.2890625,36.171875 61.4518229,36.5755208 61.7773438,36.9140625 C62.1028646,37.2526042 62.5,37.421875 62.96875,37.421875 Z M64.9609375,60 C65.2473958,60 65.390625,59.921875 65.390625,59.765625 C65.390625,59.6614583 65.3125,59.53125 65.15625,59.375 C64.9088542,59.1796875 64.6679688,58.9778646 64.4335938,58.7695312 C64.1601562,58.5221354 64.0234375,58.2942708 64.0234375,58.0859375 L64.0234375,58.0859375 L64.0234375,44.53125 C64.0234375,43.6197917 64.0527344,42.8320312 64.1113281,42.1679688 C64.1699219,41.5039062 64.2317708,41.0286458 64.296875,40.7421875 C64.3619792,40.5078125 64.3033854,40.390625 64.1210938,40.390625 C64.0820312,40.390625 64.0169271,40.4231771 63.9257812,40.4882812 C63.8346354,40.5533854 63.6165365,40.7128906 63.2714844,40.9667969 C62.9264323,41.2207031 62.4479167,41.5364583 61.8359375,41.9140625 C61.5885417,42.0703125 61.2434896,42.265625 60.8007812,42.5 C60.5013021,42.65625 60.2897135,42.7799479 60.1660156,42.8710938 C60.0423177,42.9622396 59.9804688,43.046875 59.9804688,43.125 C59.9804688,43.2291667 60.0585938,43.3072917 60.2148438,43.359375 C60.3710938,43.4114583 60.6510417,43.5091146 61.0546875,43.6523438 C61.3671875,43.8736979 61.5234375,44.3098958 61.5234375,44.9609375 L61.5234375,44.9609375 L61.5234375,58.0859375 C61.5234375,58.3072917 61.3736979,58.5481771 61.0742188,58.8085938 C60.9179688,58.9518229 60.6770833,59.1536458 60.3515625,59.4140625 C60.2213542,59.5703125 60.15625,59.6875 60.15625,59.765625 C60.15625,59.921875 60.3125,60 60.625,60 C61.0026042,59.9739583 61.3378906,59.9479167 61.6308594,59.921875 C61.9238281,59.8958333 62.3046875,59.8828125 62.7734375,59.8828125 C63.0338542,59.8828125 63.5677083,59.9153646 64.375,59.9804688 C64.53125,59.9934896 64.7265625,60 64.9609375,60 Z M86.9140625,60.6640625 C87.0703125,60.6640625 87.1223958,60.5338542 87.0703125,60.2734375 C87.0442708,60.0390625 87.0247396,59.8144531 87.0117188,59.5996094 C86.9986979,59.3847656 86.9921875,59.1796875 86.9921875,58.984375 C86.9921875,58.8932292 87.0052083,58.7109375 87.03125,58.4375 C87.0572917,58.1640625 87.0833333,57.9296875 87.109375,57.734375 C87.1744792,57.5 87.1354167,57.3828125 86.9921875,57.3828125 C86.9791667,57.3828125 86.953125,57.3893229 86.9140625,57.4023438 C86.8619792,57.4153646 86.8229167,57.4348958 86.796875,57.4609375 C86.6927083,57.5390625 86.4713542,57.7148438 86.1328125,57.9882812 C85.7942708,58.2096354 85.4492188,58.343099 85.0976562,58.3886719 C84.7460938,58.4342448 84.3684896,58.4570312 83.9648438,58.4570312 C83.7955729,58.4570312 83.6621094,58.453776 83.5644531,58.4472656 C83.4667969,58.4407552 83.3984375,58.4375 83.359375,58.4375 C84.6875,56.9401042 85.6901042,55.3092448 86.3671875,53.5449219 C87.0442708,51.780599 87.3828125,49.9348958 87.3828125,48.0078125 C87.3828125,46.2890625 86.8815104,44.7330729 85.8789062,43.3398438 C84.6158854,41.5820312 82.8125,40.703125 80.46875,40.703125 C79.2057292,40.703125 77.9622396,41.2174479 76.7382812,42.2460938 C75.9179688,42.9361979 75.2213542,43.75 74.6484375,44.6875 C74.53125,44.0104167 74.1145833,43.2096354 73.3984375,42.2851562 C72.8776042,41.6080729 72.3828125,41.0807292 71.9140625,40.703125 C71.875,40.6640625 71.8164062,40.6445312 71.7382812,40.6445312 C71.6471354,40.6445312 71.5755208,40.6770833 71.5234375,40.7421875 C71.4322917,40.859375 71.3346354,40.9765625 71.2304688,41.09375 C71.1263021,41.2109375 70.9830729,41.3606771 70.8007812,41.5429688 L70.6953125,41.6472656 C70.5598958,41.7795573 70.4453125,41.8847656 70.3515625,41.9628906 C70.234375,42.0605469 70.0911458,42.1875 69.921875,42.34375 C69.84375,42.421875 69.8046875,42.5065104 69.8046875,42.5976562 C69.8046875,42.6888021 69.8567708,42.7604167 69.9609375,42.8125 C70.6770833,43.1901042 71.1783854,43.5286458 71.4648438,43.828125 C72.1289062,44.5182292 72.4609375,45.4166667 72.4609375,46.5234375 L72.4609375,46.5234375 L72.4609375,58.0859375 C72.4609375,58.3203125 72.2395833,58.6067708 71.796875,58.9453125 C71.5364583,59.1536458 71.3476562,59.3229167 71.2304688,59.453125 C71.1132812,59.5833333 71.0546875,59.6940104 71.0546875,59.7851562 C71.0546875,59.9283854 71.2109375,60 71.5234375,60 C71.9010417,59.9739583 72.2363281,59.9479167 72.5292969,59.921875 C72.8222656,59.8958333 73.2161458,59.8828125 73.7109375,59.8828125 C74.140625,59.8828125 74.6158854,59.9023438 75.1367188,59.9414062 C75.6575521,59.9804688 75.9505208,60 76.015625,60 C76.2369792,60 76.3476562,59.9348958 76.3476562,59.8046875 C76.3476562,59.6875 76.2760417,59.5572917 76.1328125,59.4140625 C75.8854167,59.21875 75.6380208,59.0169271 75.390625,58.8085938 C75.1041667,58.5611979 74.9609375,58.3203125 74.9609375,58.0859375 L74.9609375,58.0859375 L74.9609375,46.09375 C75.46875,45.1171875 76.1132812,44.3554688 76.8945312,43.8085938 C77.7669271,43.1966146 78.75,42.890625 79.84375,42.890625 C81.4713542,42.890625 82.7604167,43.5611979 83.7109375,44.9023438 C84.6223958,46.1783854 85.078125,47.8385417 85.078125,49.8828125 C85.078125,51.1197917 84.8958333,52.3372396 84.53125,53.5351562 C84.2317708,54.5117188 83.7760417,55.5664062 83.1640625,56.6992188 C82.7734375,57.4153646 82.2265625,58.3203125 81.5234375,59.4140625 C81.484375,59.4791667 81.4648438,59.5572917 81.4648438,59.6484375 C81.4648438,59.9479167 81.6536458,60.0651042 82.03125,60 C82.3958333,59.9348958 82.6888021,59.8958333 82.9101562,59.8828125 C83.1315104,59.8697917 83.4309896,59.8632812 83.8085938,59.8632812 C84.3684896,59.8632812 84.781901,59.8828125 85.0488281,59.921875 C85.3157552,59.9609375 85.5989583,60.0390625 85.8984375,60.15625 C86.0546875,60.2213542 86.328125,60.3645833 86.71875,60.5859375 C86.7838542,60.6380208 86.8489583,60.6640625 86.9140625,60.6640625 Z M110.546875,60.625 C111.71875,60.625 112.809245,60.2766927 113.818359,59.5800781 C114.827474,58.8834635 115.638021,57.96875 116.25,56.8359375 C116.432292,57.4348958 116.744792,58.0989583 117.1875,58.828125 C117.591146,59.4921875 117.942708,59.9348958 118.242188,60.15625 C118.385417,60.2473958 118.489583,60.2929688 118.554688,60.2929688 C118.658854,60.2929688 118.763021,60.234375 118.867188,60.1171875 C118.90625,60.0651042 118.990885,59.9739583 119.121094,59.84375 C119.303385,59.6614583 119.469401,59.5019531 119.619141,59.3652344 C119.76888,59.2285156 119.960938,59.0625 120.195312,58.8671875 C120.338542,58.75 120.442708,58.671875 120.507812,58.6328125 C120.598958,58.5807292 120.644531,58.515625 120.644531,58.4375 C120.644531,58.3333333 120.572917,58.2421875 120.429688,58.1640625 C119.778646,57.8385417 119.316406,57.421875 119.042969,56.9140625 C118.769531,56.40625 118.632812,55.7682292 118.632812,55 L118.632812,55 L118.632812,35.4296875 C118.632812,34.7786458 118.658854,34.0950521 118.710938,33.3789062 C118.723958,33.2617188 118.776042,32.7734375 118.867188,31.9140625 C118.867188,31.7057292 118.808594,31.6015625 118.691406,31.6015625 C118.665365,31.6015625 118.632812,31.6080729 118.59375,31.6210938 C118.541667,31.6341146 118.502604,31.6536458 118.476562,31.6796875 C118.372396,31.7578125 118.138021,32.0117188 117.773438,32.4414062 C117.252604,33.0533854 116.770833,33.5807292 116.328125,34.0234375 C116.080729,34.2708333 115.572917,34.765625 114.804688,35.5078125 C114.375,35.9244792 114.117839,36.1914062 114.033203,36.3085938 C113.948568,36.4257812 113.90625,36.5169271 113.90625,36.5820312 C113.90625,36.7382812 113.990885,36.8164062 114.160156,36.8164062 C114.21224,36.8164062 114.270833,36.796875 114.335938,36.7578125 C114.401042,36.7317708 114.615885,36.5885417 114.980469,36.328125 C115.253906,36.1328125 115.46875,36.0286458 115.625,36.015625 C115.911458,35.9765625 116.067708,36.0677083 116.09375,36.2890625 C116.119792,36.5104167 116.132812,36.8098958 116.132812,37.1875 L116.132812,37.1875 L116.132812,42.734375 C115.403646,42.0442708 114.654948,41.5429688 113.886719,41.2304688 C113.040365,40.8789062 112.083333,40.703125 111.015625,40.703125 C108.463542,40.703125 106.354167,41.7773438 104.6875,43.9257812 C103.125,45.9309896 102.34375,48.3203125 102.34375,51.09375 C102.34375,53.8671875 103.108724,56.1490885 104.638672,57.9394531 C106.16862,59.7298177 108.138021,60.625 110.546875,60.625 Z M111.289062,58.4375 C109.231771,58.4375 107.571615,57.5455729 106.308594,55.7617188 C105.14974,54.1210938 104.570312,52.0833333 104.570312,49.6484375 C104.570312,47.6171875 105.15625,45.8203125 106.328125,44.2578125 C107.565104,42.6171875 109.0625,41.796875 110.820312,41.796875 C112.291667,41.796875 113.515625,42.2070312 114.492188,43.0273438 C115.585938,43.9388021 116.132812,45.1822917 116.132812,46.7578125 L116.132812,46.7578125 L116.132812,53.359375 C116.132812,54.9348958 115.63151,56.1979167 114.628906,57.1484375 C113.717448,58.0078125 112.604167,58.4375 111.289062,58.4375 Z M127.109375,64.21875 C127.526042,64.21875 127.890625,64.0494792 128.203125,63.7109375 C128.4375,63.4505208 128.59375,63.1640625 128.671875,62.8515625 C128.723958,62.6953125 128.704427,62.5911458 128.613281,62.5390625 C128.574219,62.5130208 128.528646,62.5130208 128.476562,62.5390625 L128.476562,62.5390625 L128.242188,62.6171875 C128.151042,62.6432292 128.059896,62.65625 127.96875,62.65625 C127.669271,62.65625 127.454427,62.6106771 127.324219,62.5195312 C127.128906,62.3763021 127.03125,62.1223958 127.03125,61.7578125 C127.03125,61.4583333 127.220052,60.9765625 127.597656,60.3125 C127.897135,59.7786458 128.229167,59.2838542 128.59375,58.828125 C129.505208,59.5182292 130.46875,60.0065104 131.484375,60.2929688 C132.369792,60.5403646 133.385417,60.6640625 134.53125,60.6640625 C136.315104,60.6640625 137.96224,60.0976562 139.472656,58.9648438 C140.761719,58.0013021 141.575521,56.9661458 141.914062,55.859375 C141.979167,55.6901042 142.011719,55.5273438 142.011719,55.3710938 C142.011719,55.1627604 141.927083,55.0390625 141.757812,55 C141.627604,54.9739583 141.510417,55.0292969 141.40625,55.1660156 C141.302083,55.3027344 141.210938,55.4296875 141.132812,55.546875 C140.3125,56.5494792 139.570312,57.2460938 138.90625,57.6367188 C137.994792,58.1705729 136.835938,58.4375 135.429688,58.4375 C134.414062,58.4375 133.4375,58.2617188 132.5,57.9101562 C131.705729,57.6106771 130.924479,57.1875 130.15625,56.640625 C131.627604,54.3489583 133.196615,52.0638021 134.863281,49.7851562 C136.529948,47.5065104 137.994792,45.6640625 139.257812,44.2578125 C139.505208,43.9583333 139.798177,43.6653646 140.136719,43.3789062 C140.384115,43.1575521 140.611979,42.9817708 140.820312,42.8515625 C140.911458,42.7994792 140.957031,42.7278646 140.957031,42.6367188 C140.957031,42.5195312 140.885417,42.4609375 140.742188,42.4609375 L140.742188,42.4609375 L140.15625,42.5 C139.934896,42.5 139.713542,42.4869792 139.492188,42.4609375 C139.270833,42.4348958 139.101562,42.3958333 138.984375,42.34375 C138.372396,42.0572917 137.760417,41.7643229 137.148438,41.4648438 C136.041667,40.9570312 134.960938,40.703125 133.90625,40.703125 C131.263021,40.703125 129.052734,41.6992188 127.275391,43.6914062 C125.498047,45.6835938 124.609375,48.046875 124.609375,50.78125 C124.609375,52.265625 124.895833,53.6523438 125.46875,54.9414062 C125.989583,56.1002604 126.731771,57.1744792 127.695312,58.1640625 C126.653646,59.84375 126.09375,60.7682292 126.015625,60.9375 C125.729167,61.5364583 125.585938,62.0442708 125.585938,62.4609375 C125.585938,62.9817708 125.729167,63.4049479 126.015625,63.7304688 C126.302083,64.0559896 126.666667,64.21875 127.109375,64.21875 Z M129.257812,55.8984375 C128.515625,55.1822917 127.897135,54.3098958 127.402344,53.28125 C126.816406,52.0703125 126.523438,50.859375 126.523438,49.6484375 C126.523438,47.6041667 127.083333,45.8398438 128.203125,44.3554688 C129.401042,42.7799479 130.924479,41.9921875 132.773438,41.9921875 C133.763021,41.9921875 134.609375,42.1744792 135.3125,42.5390625 C136.145833,42.96875 136.5625,43.5677083 136.5625,44.3359375 C136.5625,44.9088542 136.210938,45.7421875 135.507812,46.8359375 L135.507812,46.8359375 L133.359375,49.8828125 C132.799479,50.6770833 132.122396,51.6601562 131.328125,52.8320312 C130.833333,53.5611979 130.143229,54.5833333 129.257812,55.8984375 Z M161.132812,60.625 C163.4375,60.625 165.423177,60.0065104 167.089844,58.7695312 C168.873698,57.4544271 169.765625,55.7682292 169.765625,53.7109375 C169.765625,52.5130208 169.427083,51.5234375 168.75,50.7421875 C168.177083,50.078125 167.317708,49.5182292 166.171875,49.0625 C165.351562,48.7369792 164.179688,48.3984375 162.65625,48.046875 C160.195312,47.4869792 158.736979,47.0572917 158.28125,46.7578125 C157.552083,46.2890625 157.1875,45.6380208 157.1875,44.8046875 C157.1875,43.8802083 157.740885,43.1054688 158.847656,42.4804688 C159.85026,41.9205729 160.976562,41.640625 162.226562,41.640625 C163.229167,41.640625 164.042969,41.7317708 164.667969,41.9140625 C165.514323,42.1614583 165.9375,42.578125 165.9375,43.1640625 C165.9375,43.4765625 165.813802,43.75 165.566406,43.984375 C165.31901,44.21875 165.026042,44.3359375 164.6875,44.3359375 C164.166667,44.3359375 163.789062,44.21875 163.554688,43.984375 C163.372396,43.8020833 163.28125,43.5677083 163.28125,43.28125 L163.28125,43.28125 L163.320312,42.890625 C163.320312,42.7604167 163.27474,42.6953125 163.183594,42.6953125 C163.170573,42.6953125 163.098958,42.7083333 162.96875,42.734375 C162.669271,42.8255208 162.399089,43.0045573 162.158203,43.2714844 C161.917318,43.5384115 161.796875,43.8476562 161.796875,44.1992188 C161.796875,44.8763021 162.122396,45.3971354 162.773438,45.7617188 C163.307292,46.0611979 163.971354,46.2109375 164.765625,46.2109375 C165.598958,46.2109375 166.334635,45.9960938 166.972656,45.5664062 C167.66276,45.0976562 168.007812,44.5052083 168.007812,43.7890625 C168.007812,42.6692708 167.363281,41.8424479 166.074219,41.3085938 C165.097656,40.9049479 163.815104,40.703125 162.226562,40.703125 C160.46875,40.703125 158.91276,41.1263021 157.558594,41.9726562 C156.08724,42.8841146 155.351562,44.0364583 155.351562,45.4296875 C155.351562,46.6536458 155.716146,47.6041667 156.445312,48.28125 C157.005208,48.8020833 157.884115,49.2252604 159.082031,49.5507812 C160.136719,49.7981771 161.197917,50.0390625 162.265625,50.2734375 C164.127604,50.7291667 165.390625,51.1783854 166.054688,51.6210938 C167.122396,52.3372396 167.65625,53.4375 167.65625,54.921875 C167.65625,56.40625 166.927083,57.5846354 165.46875,58.4570312 C164.231771,59.1992188 162.786458,59.5703125 161.132812,59.5703125 C159.544271,59.5703125 158.170573,59.3229167 157.011719,58.828125 C155.61849,58.2291667 154.921875,57.3828125 154.921875,56.2890625 C154.921875,55.5078125 155.23763,54.8958333 155.869141,54.453125 C156.500651,54.0104167 157.278646,53.7890625 158.203125,53.7890625 C158.671875,53.7890625 159.108073,53.9095052 159.511719,54.1503906 C159.915365,54.391276 160.117188,54.7005208 160.117188,55.078125 C160.117188,55.4947917 160.042318,55.8007812 159.892578,55.9960938 C159.742839,56.1914062 159.557292,56.328125 159.335938,56.40625 C159.166667,56.4453125 159.082031,56.5104167 159.082031,56.6015625 C159.082031,56.640625 159.114583,56.6927083 159.179688,56.7578125 C159.427083,56.9661458 159.830729,57.0703125 160.390625,57.0703125 C160.976562,57.0703125 161.48112,56.8522135 161.904297,56.4160156 C162.327474,55.9798177 162.539062,55.46875 162.539062,54.8828125 C162.539062,53.9583333 162.102865,53.2421875 161.230469,52.734375 C160.46224,52.2916667 159.466146,52.0703125 158.242188,52.0703125 C157.057292,52.0703125 156.038411,52.4707031 155.185547,53.2714844 C154.332682,54.0722656 153.90625,55.0520833 153.90625,56.2109375 C153.90625,57.734375 154.69401,58.8867188 156.269531,59.6679688 C157.558594,60.3059896 159.179688,60.625 161.132812,60.625 Z M181.289062,60.625 C182.708333,60.625 184.06901,60.1888021 185.371094,59.3164062 C186.542969,58.5221354 187.382812,57.5911458 187.890625,56.5234375 L187.890625,56.5234375 L188.007812,58.3984375 C188.007812,58.6328125 187.972005,58.844401 187.900391,59.0332031 C187.828776,59.2220052 187.734375,59.4010417 187.617188,59.5703125 C187.552083,59.6614583 187.519531,59.7330729 187.519531,59.7851562 C187.519531,59.9283854 187.669271,60 187.96875,60 C188.020833,60 188.190104,59.9804688 188.476562,59.9414062 C188.763021,59.9023438 189.023438,59.8828125 189.257812,59.8828125 C189.596354,59.8828125 189.954427,59.9023438 190.332031,59.9414062 C190.709635,59.9804688 190.924479,60 190.976562,60 C191.171875,60 191.269531,59.9348958 191.269531,59.8046875 C191.269531,59.7395833 191.223958,59.6354167 191.132812,59.4921875 C191.080729,59.4140625 190.957031,59.2317708 190.761719,58.9453125 C190.579427,58.6328125 190.455729,58.3072917 190.390625,57.96875 C190.247396,57.2916667 190.071615,56.0449219 189.863281,54.2285156 C189.654948,52.4121094 189.433594,50.9830729 189.199219,49.9414062 C188.834635,48.3007812 188.346354,46.9270833 187.734375,45.8203125 C186.861979,44.2447917 185.722656,42.9980469 184.316406,42.0800781 C182.910156,41.1621094 181.484375,40.703125 180.039062,40.703125 C178.567708,40.703125 177.311198,40.9765625 176.269531,41.5234375 C175.084635,42.1484375 174.492188,43.0208333 174.492188,44.140625 C174.492188,45 174.739583,45.6835938 175.234375,46.1914062 C175.729167,46.6992188 176.354167,46.953125 177.109375,46.953125 C177.747396,46.953125 178.310547,46.7480469 178.798828,46.3378906 C179.287109,45.9277344 179.53125,45.4166667 179.53125,44.8046875 C179.53125,44.4270833 179.38151,44.0885417 179.082031,43.7890625 C178.782552,43.4895833 178.450521,43.3203125 178.085938,43.28125 C177.942708,43.28125 177.858073,43.2877604 177.832031,43.3007812 C177.779948,43.3268229 177.773438,43.3854167 177.8125,43.4765625 C177.851562,43.6067708 177.89388,43.7532552 177.939453,43.9160156 C177.985026,44.078776 178.007812,44.2447917 178.007812,44.4140625 C178.007812,44.6484375 177.910156,44.8502604 177.714844,45.0195312 C177.519531,45.1888021 177.291667,45.2734375 177.03125,45.2734375 C176.653646,45.2734375 176.357422,45.1367188 176.142578,44.8632812 C175.927734,44.5898438 175.820312,44.2447917 175.820312,43.828125 C175.820312,43.0989583 176.178385,42.5260417 176.894531,42.109375 C177.519531,41.7447917 178.268229,41.5625 179.140625,41.5625 C180.546875,41.5625 181.914062,42.109375 183.242188,43.203125 C184.296875,44.0625 185.214844,45.1627604 185.996094,46.5039062 C186.660156,47.6367188 186.992188,48.4895833 186.992188,49.0625 C186.497396,48.4895833 185.777995,48.0013021 184.833984,47.5976562 C183.889974,47.1940104 182.903646,46.9921875 181.875,46.9921875 C179.752604,46.9921875 177.929688,47.6432292 176.40625,48.9453125 C174.817708,50.2994792 174.023438,51.9791667 174.023438,53.984375 C174.023438,55.9765625 174.752604,57.5976562 176.210938,58.8476562 C177.591146,60.0325521 179.283854,60.625 181.289062,60.625 Z M182.070312,58.515625 C180.572917,58.515625 179.280599,58.0110677 178.193359,57.0019531 C177.10612,55.9928385 176.5625,54.7526042 176.5625,53.28125 C176.5625,51.9010417 177.096354,50.7421875 178.164062,49.8046875 C179.231771,48.8671875 180.481771,48.3984375 181.914062,48.3984375 C183.671875,48.3984375 185.094401,48.8378906 186.181641,49.7167969 C187.26888,50.5957031 187.8125,51.7708333 187.8125,53.2421875 C187.8125,54.7916667 187.288411,56.0579427 186.240234,57.0410156 C185.192057,58.0240885 183.802083,58.515625 182.070312,58.515625 Z M211.40625,60.6640625 C211.5625,60.6640625 211.614583,60.5338542 211.5625,60.2734375 C211.536458,60.0390625 211.516927,59.8144531 211.503906,59.5996094 C211.490885,59.3847656 211.484375,59.1796875 211.484375,58.984375 C211.484375,58.8932292 211.497396,58.7109375 211.523438,58.4375 C211.549479,58.1640625 211.575521,57.9296875 211.601562,57.734375 C211.666667,57.5 211.627604,57.3828125 211.484375,57.3828125 C211.471354,57.3828125 211.445312,57.3893229 211.40625,57.4023438 C211.354167,57.4153646 211.315104,57.4348958 211.289062,57.4609375 C211.184896,57.5390625 210.963542,57.7148438 210.625,57.9882812 C210.286458,58.2096354 209.941406,58.343099 209.589844,58.3886719 C209.238281,58.4342448 208.860677,58.4570312 208.457031,58.4570312 C208.28776,58.4570312 208.154297,58.453776 208.056641,58.4472656 C207.958984,58.4407552 207.890625,58.4375 207.851562,58.4375 C209.179688,56.9401042 210.182292,55.3092448 210.859375,53.5449219 C211.536458,51.780599 211.875,49.9348958 211.875,48.0078125 C211.875,46.2890625 211.373698,44.7330729 210.371094,43.3398438 C209.108073,41.5820312 207.304688,40.703125 204.960938,40.703125 C203.697917,40.703125 202.454427,41.2174479 201.230469,42.2460938 C200.410156,42.9361979 199.713542,43.75 199.140625,44.6875 C199.023438,44.0104167 198.606771,43.2096354 197.890625,42.2851562 C197.369792,41.6080729 196.875,41.0807292 196.40625,40.703125 C196.367188,40.6640625 196.308594,40.6445312 196.230469,40.6445312 C196.139323,40.6445312 196.067708,40.6770833 196.015625,40.7421875 C195.924479,40.859375 195.826823,40.9765625 195.722656,41.09375 C195.61849,41.2109375 195.47526,41.3606771 195.292969,41.5429688 L195.1875,41.6472656 C195.052083,41.7795573 194.9375,41.8847656 194.84375,41.9628906 C194.726562,42.0605469 194.583333,42.1875 194.414062,42.34375 C194.335938,42.421875 194.296875,42.5065104 194.296875,42.5976562 C194.296875,42.6888021 194.348958,42.7604167 194.453125,42.8125 C195.169271,43.1901042 195.670573,43.5286458 195.957031,43.828125 C196.621094,44.5182292 196.953125,45.4166667 196.953125,46.5234375 L196.953125,46.5234375 L196.953125,58.0859375 C196.953125,58.3203125 196.731771,58.6067708 196.289062,58.9453125 C196.028646,59.1536458 195.839844,59.3229167 195.722656,59.453125 C195.605469,59.5833333 195.546875,59.6940104 195.546875,59.7851562 C195.546875,59.9283854 195.703125,60 196.015625,60 C196.393229,59.9739583 196.728516,59.9479167 197.021484,59.921875 C197.314453,59.8958333 197.708333,59.8828125 198.203125,59.8828125 C198.632812,59.8828125 199.108073,59.9023438 199.628906,59.9414062 C200.14974,59.9804688 200.442708,60 200.507812,60 C200.729167,60 200.839844,59.9348958 200.839844,59.8046875 C200.839844,59.6875 200.768229,59.5572917 200.625,59.4140625 C200.377604,59.21875 200.130208,59.0169271 199.882812,58.8085938 C199.596354,58.5611979 199.453125,58.3203125 199.453125,58.0859375 L199.453125,58.0859375 L199.453125,46.09375 C199.960938,45.1171875 200.605469,44.3554688 201.386719,43.8085938 C202.259115,43.1966146 203.242188,42.890625 204.335938,42.890625 C205.963542,42.890625 207.252604,43.5611979 208.203125,44.9023438 C209.114583,46.1783854 209.570312,47.8385417 209.570312,49.8828125 C209.570312,51.1197917 209.388021,52.3372396 209.023438,53.5351562 C208.723958,54.5117188 208.268229,55.5664062 207.65625,56.6992188 C207.265625,57.4153646 206.71875,58.3203125 206.015625,59.4140625 C205.976562,59.4791667 205.957031,59.5572917 205.957031,59.6484375 C205.957031,59.9479167 206.145833,60.0651042 206.523438,60 C206.888021,59.9348958 207.18099,59.8958333 207.402344,59.8828125 C207.623698,59.8697917 207.923177,59.8632812 208.300781,59.8632812 C208.860677,59.8632812 209.274089,59.8828125 209.541016,59.921875 C209.807943,59.9609375 210.091146,60.0390625 210.390625,60.15625 C210.546875,60.2213542 210.820312,60.3645833 211.210938,60.5859375 C211.276042,60.6380208 211.341146,60.6640625 211.40625,60.6640625 Z M221.679688,60.703125 C221.783854,60.703125 221.888021,60.6510417 221.992188,60.546875 C222.096354,60.4036458 222.330729,60.1692708 222.695312,59.84375 C222.786458,59.765625 222.916667,59.6614583 223.085938,59.53125 C223.216146,59.453125 223.333333,59.3782552 223.4375,59.3066406 C223.541667,59.235026 223.59375,59.1666667 223.59375,59.1015625 C223.59375,58.9973958 223.541667,58.90625 223.4375,58.828125 C222.825521,58.3203125 222.447917,57.9752604 222.304688,57.7929688 C221.783854,57.1419271 221.523438,56.3541667 221.523438,55.4296875 L221.523438,55.4296875 L221.523438,42.5 C222.03125,42.5 222.571615,42.5130208 223.144531,42.5390625 C223.717448,42.5651042 224.036458,42.578125 224.101562,42.578125 C224.283854,42.578125 224.375,42.4739583 224.375,42.265625 L224.375,42.265625 L224.375,41.6015625 C224.375,41.4192708 224.283854,41.328125 224.101562,41.328125 C223.645833,41.3541667 223.209635,41.3736979 222.792969,41.3867188 C222.376302,41.3997396 221.953125,41.40625 221.523438,41.40625 L221.523438,41.40625 L221.523438,38.1640625 C221.523438,37.2916667 221.5625,36.4453125 221.640625,35.625 C221.679688,35.2864583 221.71875,34.9479167 221.757812,34.609375 C221.757812,34.4140625 221.705729,34.3164062 221.601562,34.3164062 C221.536458,34.3164062 221.484375,34.3489583 221.445312,34.4140625 C221.223958,34.6875 220.999349,34.9674479 220.771484,35.2539062 C220.54362,35.5403646 220.221354,35.8984375 219.804688,36.328125 C219.440104,36.6927083 219.108073,37.014974 218.808594,37.2949219 C218.509115,37.5748698 218.216146,37.8385417 217.929688,38.0859375 C217.851562,38.1640625 217.8125,38.2421875 217.8125,38.3203125 C217.8125,38.5026042 217.903646,38.59375 218.085938,38.59375 C218.164062,38.6067708 218.313802,38.6263021 218.535156,38.6523438 C218.860677,38.7434896 219.023438,39.1666667 219.023438,39.921875 L219.023438,39.921875 L219.023438,41.40625 C218.59375,41.40625 218.125,41.3932292 217.617188,41.3671875 C217.109375,41.3411458 216.822917,41.328125 216.757812,41.328125 C216.523438,41.328125 216.40625,41.4322917 216.40625,41.640625 L216.40625,41.640625 L216.40625,42.265625 C216.40625,42.4739583 216.497396,42.578125 216.679688,42.578125 C217.070312,42.5651042 217.454427,42.5488281 217.832031,42.5292969 C218.209635,42.5097656 218.606771,42.5 219.023438,42.5 L219.023438,42.5 L219.023438,55.234375 C219.023438,56.7057292 219.322917,57.96875 219.921875,59.0234375 C220.351562,59.7786458 220.846354,60.3125 221.40625,60.625 C221.497396,60.6770833 221.588542,60.703125 221.679688,60.703125 Z M234.228516,38.4082031 C234.326172,38.5058594 234.420573,38.5091146 234.511719,38.4179688 C235.917969,37.6106771 236.71875,37.1549479 236.914062,37.0507812 C237.382812,36.7903646 237.89388,36.5136719 238.447266,36.2207031 C239.000651,35.9277344 239.798177,35.4882812 240.839844,34.9023438 C241.373698,34.6028646 241.71224,34.4205729 241.855469,34.3554688 C241.959635,34.3164062 242.011719,34.2643229 242.011719,34.1992188 C242.011719,34.1471354 241.946615,34.0559896 241.816406,33.9257812 L241.816406,33.9257812 L241.582031,33.6914062 C241.464844,33.5611979 241.347656,33.4049479 241.230469,33.2226562 L241.230469,33.2226562 L240.683594,32.2460938 C240.61849,32.1679688 240.546875,32.1289062 240.46875,32.1289062 C240.403646,32.1289062 240.345052,32.1549479 240.292969,32.2070312 C240.110677,32.3893229 239.68099,32.7799479 239.003906,33.3789062 C238.326823,33.9778646 237.80599,34.4335938 237.441406,34.7460938 C236.985677,35.1627604 236.373698,35.6998698 235.605469,36.3574219 C234.83724,37.014974 234.329427,37.4674479 234.082031,37.7148438 C233.964844,37.8320312 233.925781,37.9361979 233.964844,38.0273438 C234.042969,38.1835938 234.130859,38.3105469 234.228516,38.4082031 Z M230.976562,64.21875 C231.393229,64.21875 231.757812,64.0494792 232.070312,63.7109375 C232.304688,63.4505208 232.460938,63.1640625 232.539062,62.8515625 C232.591146,62.6953125 232.571615,62.5911458 232.480469,62.5390625 C232.441406,62.5130208 232.395833,62.5130208 232.34375,62.5390625 L232.34375,62.5390625 L232.109375,62.6171875 C232.018229,62.6432292 231.927083,62.65625 231.835938,62.65625 C231.536458,62.65625 231.321615,62.6106771 231.191406,62.5195312 C230.996094,62.3763021 230.898438,62.1223958 230.898438,61.7578125 C230.898438,61.4583333 231.08724,60.9765625 231.464844,60.3125 C231.764323,59.7786458 232.096354,59.2838542 232.460938,58.828125 C233.372396,59.5182292 234.335938,60.0065104 235.351562,60.2929688 C236.236979,60.5403646 237.252604,60.6640625 238.398438,60.6640625 C240.182292,60.6640625 241.829427,60.0976562 243.339844,58.9648438 C244.628906,58.0013021 245.442708,56.9661458 245.78125,55.859375 C245.846354,55.6901042 245.878906,55.5273438 245.878906,55.3710938 C245.878906,55.1627604 245.794271,55.0390625 245.625,55 C245.494792,54.9739583 245.377604,55.0292969 245.273438,55.1660156 C245.169271,55.3027344 245.078125,55.4296875 245,55.546875 C244.179688,56.5494792 243.4375,57.2460938 242.773438,57.6367188 C241.861979,58.1705729 240.703125,58.4375 239.296875,58.4375 C238.28125,58.4375 237.304688,58.2617188 236.367188,57.9101562 C235.572917,57.6106771 234.791667,57.1875 234.023438,56.640625 C235.494792,54.3489583 237.063802,52.0638021 238.730469,49.7851562 C240.397135,47.5065104 241.861979,45.6640625 243.125,44.2578125 C243.372396,43.9583333 243.665365,43.6653646 244.003906,43.3789062 C244.251302,43.1575521 244.479167,42.9817708 244.6875,42.8515625 C244.778646,42.7994792 244.824219,42.7278646 244.824219,42.6367188 C244.824219,42.5195312 244.752604,42.4609375 244.609375,42.4609375 L244.609375,42.4609375 L244.023438,42.5 C243.802083,42.5 243.580729,42.4869792 243.359375,42.4609375 C243.138021,42.4348958 242.96875,42.3958333 242.851562,42.34375 C242.239583,42.0572917 241.627604,41.7643229 241.015625,41.4648438 C239.908854,40.9570312 238.828125,40.703125 237.773438,40.703125 C235.130208,40.703125 232.919922,41.6992188 231.142578,43.6914062 C229.365234,45.6835938 228.476562,48.046875 228.476562,50.78125 C228.476562,52.265625 228.763021,53.6523438 229.335938,54.9414062 C229.856771,56.1002604 230.598958,57.1744792 231.5625,58.1640625 C230.520833,59.84375 229.960938,60.7682292 229.882812,60.9375 C229.596354,61.5364583 229.453125,62.0442708 229.453125,62.4609375 C229.453125,62.9817708 229.596354,63.4049479 229.882812,63.7304688 C230.169271,64.0559896 230.533854,64.21875 230.976562,64.21875 Z M233.125,55.8984375 C232.382812,55.1822917 231.764323,54.3098958 231.269531,53.28125 C230.683594,52.0703125 230.390625,50.859375 230.390625,49.6484375 C230.390625,47.6041667 230.950521,45.8398438 232.070312,44.3554688 C233.268229,42.7799479 234.791667,41.9921875 236.640625,41.9921875 C237.630208,41.9921875 238.476562,42.1744792 239.179688,42.5390625 C240.013021,42.96875 240.429688,43.5677083 240.429688,44.3359375 C240.429688,44.9088542 240.078125,45.7421875 239.375,46.8359375 L239.375,46.8359375 L237.226562,49.8828125 C236.666667,50.6770833 235.989583,51.6601562 235.195312,52.8320312 C234.700521,53.5611979 234.010417,54.5833333 233.125,55.8984375 Z"></path>
            </g>
        </g>
    </g>
</svg>