<?xml version="1.0" encoding="UTF-8"?>
<svg width="40px" height="40px" viewBox="0 0 40 40" version="1.1" xmlns="http://www.w3.org/2000/svg" xmlns:xlink="http://www.w3.org/1999/xlink">
    <!-- Generator: Sketch 64 (93537) - https://sketch.com -->
    <title>IconeLoupe</title>
    <desc>Created with Sketch.</desc>
    <g id="IconeLoupe" stroke="none" stroke-width="1" fill="none" fill-rule="evenodd">
        <g id="Icones/Actions/Rechercher" fill="#6FA2A7">
            <g id="Icones/Actions/Rechercher/Noir">
                <g id="Picto-loupe-blanc-Copy" transform="translate(10.000000, 10.000000)">
                    <path d="M13.0666667,0.4 C16.674927,0.4 19.6,3.32507297 19.6,6.93333333 C19.6,10.5415937 16.674927,13.4666667 13.0666667,13.4666667 C11.6961378,13.4666667 10.4241735,13.0446619 9.3736262,12.3235051 L2.4,19.2970563 L0.702943725,17.6 L7.67649495,10.6263738 C6.95533807,9.57582654 6.53333333,8.30386218 6.53333333,6.93333333 C6.53333333,3.32507297 9.4584063,0.4 13.0666667,0.4 Z M13.0666667,2.8 C10.7838897,2.8 8.93333333,4.65055637 8.93333333,6.93333333 C8.93333333,9.2161103 10.7838897,11.0666667 13.0666667,11.0666667 C15.3494436,11.0666667 17.2,9.2161103 17.2,6.93333333 C17.2,4.65055637 15.3494436,2.8 13.0666667,2.8 Z" id="Combined-Shape"></path>
                </g>
            </g>
        </g>
    </g>
</svg>