<?xml version="1.0" encoding="UTF-8"?>
<svg width="40px" height="40px" viewBox="0 0 40 40" version="1.1" xmlns="http://www.w3.org/2000/svg" xmlns:xlink="http://www.w3.org/1999/xlink">
    <!-- Generator: Sketch 64 (93537) - https://sketch.com -->
    <title>LoupeMobile</title>
    <desc>Created with Sketch.</desc>
    <g id="LoupeMobile" stroke="none" stroke-width="1" fill="none" fill-rule="evenodd">
        <g fill="#E8E098" id="Picto-loupe-blanc-Copy">
            <g transform="translate(11.000000, 11.000000)">
                <path d="M12.3637229,7.1942452e-14 C15.9719833,7.1942452e-14 18.8970563,2.92507297 18.8970563,6.53333333 C18.8970563,10.1415937 15.9719833,13.0666667 12.3637229,13.0666667 C10.9931941,13.0666667 9.72122974,12.6446619 8.67068248,11.9235051 L1.69705627,18.8970563 L-3.17079696e-13,17.2 L6.97355122,10.2263738 C6.25239435,9.17582654 5.83038961,7.90386218 5.83038961,6.53333333 C5.83038961,2.92507297 8.75546258,7.1942452e-14 12.3637229,7.1942452e-14 Z M12.3637229,2.4 C10.080946,2.4 8.23038961,4.25055637 8.23038961,6.53333333 C8.23038961,8.8161103 10.080946,10.6666667 12.3637229,10.6666667 C14.6464999,10.6666667 16.4970563,8.8161103 16.4970563,6.53333333 C16.4970563,4.25055637 14.6464999,2.4 12.3637229,2.4 Z" id="Combined-Shape"></path>
            </g>
        </g>
    </g>
</svg>