<?xml version="1.0" encoding="UTF-8"?>
<svg width="40px" height="40px" viewBox="0 0 40 40" version="1.1" xmlns="http://www.w3.org/2000/svg" xmlns:xlink="http://www.w3.org/1999/xlink">
    <!-- Generator: Sketch 64 (93537) - https://sketch.com -->
    <title>Icones/Actions/Supprimer/Rouge</title>
    <desc>Created with Sketch.</desc>
    <g id="Icones/Actions/Supprimer/Rouge" stroke="none" stroke-width="1" fill="none" fill-rule="evenodd">
        <g fill="#D50A0A" id="1495631804_trash">
            <g transform="translate(12.000000, 11.200000)">
                <path d="M5.67741935,15.2739281 L5.67741935,5.72337238 C5.67741935,5.66006377 5.52862021,5.21576132 4.90322581,5.21576132 C4.27783141,5.21576132 4.12903226,5.66006377 4.12903226,5.72337238 L4.12903226,15.2739281 C4.12903226,15.4005453 4.23790323,15.882428 4.90322581,15.882428 C5.56854839,15.882428 5.67741935,15.4005453 5.67741935,15.2739281 Z M8.77419355,15.3915001 L8.77419355,5.84094439 C8.77419355,5.77763579 8.6253944,5.33333333 8,5.33333333 C7.3746056,5.33333333 7.22580645,5.77763579 7.22580645,5.84094439 L7.22580645,15.3915001 C7.22580645,15.5181173 7.33467742,16 8,16 C8.66532258,16 8.77419355,15.5181173 8.77419355,15.3915001 Z M11.8709677,15.2739281 L11.8709677,5.72337238 C11.8709677,5.66006377 11.7221686,5.21576132 11.0967742,5.21576132 C10.4713798,5.21576132 10.3225806,5.66006377 10.3225806,5.72337238 L10.3225806,15.2739281 C10.3225806,15.4005453 10.4314516,15.882428 11.0967742,15.882428 C11.7620968,15.882428 11.8709677,15.4005453 11.8709677,15.2739281 Z M5.69599609,2.90845967 L10.3039963,2.90845967 L9.81028197,1.57891421 C9.76228197,1.51073239 9.70399625,1.46906573 9.63542482,1.45391421 L6.37485326,1.45391421 C6.30628183,1.46906573 6.24799612,1.51073239 6.19999611,1.57891421 L5.69599609,2.90845967 Z M15.3900293,4.36363636 L14.3343109,4.36363636 L14.3343109,15.1363636 C14.3343109,15.7651515 14.1620235,16.3087121 13.8174487,16.7670455 C13.4728739,17.2253788 13.058651,17.4545455 12.5747801,17.4545455 L3.42521994,17.4545455 C2.94134897,17.4545455 2.5271261,17.2329545 2.18255132,16.7897727 C1.83797654,16.3465909 1.66568915,15.8106061 1.66568915,15.1818182 L1.66568915,4.36363636 L0.609970674,4.36363636 C0.558651026,4.36363636 0.129456167,4.17910426 0.129456167,3.63636364 C0.129456167,3.09362301 0.558651026,2.90909091 0.609970674,2.90909091 L4.00806452,2.90909091 L4.77785924,1.01136364 C4.88782991,0.731060606 5.08577713,0.492424242 5.37170088,0.295454545 C5.65762463,0.0984848485 5.94721408,0 6.24046921,0 L9.75953079,0 C10.0527859,0 10.3423754,0.0984848485 10.6282991,0.295454545 C10.9142229,0.492424242 11.1121701,0.731060606 11.2221408,1.01136364 L11.9919355,2.90909091 L15.3900293,2.90909091 C15.441349,2.90909091 15.9451992,3.1132767 15.9451992,3.63636364 C15.9451992,4.15945057 15.441349,4.36363636 15.3900293,4.36363636 Z" id="Shape"></path>
            </g>
        </g>
    </g>
</svg>