<?xml version="1.0" encoding="UTF-8"?>
<svg width="40px" height="40px" viewBox="0 0 40 40" version="1.1" xmlns="http://www.w3.org/2000/svg" xmlns:xlink="http://www.w3.org/1999/xlink">
    <title>Icone Param</title>
    <g id="Icone-Param" stroke="none" stroke-width="1" fill="none" fill-rule="evenodd">
        <g id="Icones/Actions/Paramétrer" fill="#6FA2A7">
            <g id="Oval-67">
                <g>
                    <path d="M22.8142857,7 L22.8146132,10.484241 C23.8814037,10.8072375 24.8718045,11.3167603 25.7509951,11.9765962 L28.4870269,9.24007885 L31.7599211,12.5129731 L28.7091754,15.5629136 C29.219236,16.6026424 29.5599938,17.7471889 29.6936575,18.95725 L34,18.9571429 L34,23.5857143 L29.1637406,23.5858616 C28.9036673,24.3188712 28.5636048,25.0116 28.1545664,25.6525941 L31.7599211,29.2584555 L28.4870269,32.5313497 L24.8232234,28.8678428 C24.1939217,29.2347829 23.521015,29.5304503 22.8146132,29.7443305 L22.8142857,34 L18.1857143,34 L18.1855626,29.9422173 C17.384792,29.7731536 16.6200562,29.5008901 15.9047491,29.1393568 L12.5129731,32.5313497 L9.24007885,29.2584555 L12.3861461,26.1131816 C11.835986,25.3478357 11.3884729,24.498038 11.0648308,23.5858616 L7,23.5857143 L7,18.9571429 L10.5349139,18.95725 C10.6905871,17.5479361 11.1271712,16.227489 11.7849636,15.0579995 L9.24007885,12.5129731 L12.5129731,9.24007885 L14.9299663,11.6569202 C15.9089048,11.0065172 17.0082907,10.5349072 18.1855626,10.2863541 L18.1857143,7 L22.8142857,7 Z M20.1142857,16.2571429 C17.7710204,16.2571429 15.8714286,18.3294249 15.8714286,20.8857143 C15.8714286,23.4420037 17.7710204,25.5142857 20.1142857,25.5142857 C22.457551,25.5142857 24.3571429,23.4420037 24.3571429,20.8857143 C24.3571429,18.3294249 22.457551,16.2571429 20.1142857,16.2571429 Z"></path>
                </g>
            </g>
        </g>
    </g>
</svg>